<svg id="Layer_1" data-name="Layer 1" xmlns="http://www.w3.org/2000/svg" viewBox="0 0 62.31 56.5"><defs><style>.cls-1{fill:#fff;}</style></defs><title>noun_Arrow_2033941</title><path class="cls-1" d="M49.9,47.2,25.7,22.9A4,4,0,1,0,20,28.5L41.5,50,20.1,71.4A4,4,0,0,0,25.8,77L50,52.8A4,4,0,0,0,49.9,47.2Z" transform="translate(-18.8 -21.7)"/><path class="cls-1" d="M79.9,47.2,55.7,22.9A4,4,0,1,0,50,28.5L71.5,50,50.1,71.4A4,4,0,0,0,55.8,77L80,52.8A4,4,0,0,0,79.9,47.2Z" transform="translate(-18.8 -21.7)"/></svg>